# Blender v2.77 (sub 0) OBJ File: 'honey-comb.blend'
# www.blender.org
mtllib honey-comb.mtl
o Obj_000361
v -0.098265 0.013297 0.173844
v 0.103499 0.010405 0.175681
v 0.106670 0.009633 -0.173819
v 0.005788 0.011079 -0.174737
v -0.095094 0.012524 -0.175656
v 0.205966 0.008573 0.001850
v 0.156318 0.009103 -0.085984
v -0.197561 0.014356 -0.001824
v -0.147913 0.013827 0.086010
v -0.146328 0.013440 -0.088740
v 0.206188 0.024035 0.001818
v 0.205966 0.008573 0.001850
v 0.103721 0.025867 0.175649
v 0.103499 0.010405 0.175681
v 0.103721 0.025867 0.175649
v 0.103499 0.010405 0.175681
v -0.098043 0.028758 0.173812
v -0.098265 0.013297 0.173844
v -0.098043 0.028758 0.173812
v -0.098265 0.013297 0.173844
v -0.147692 0.029288 0.085978
v -0.147913 0.013827 0.086010
v -0.197340 0.029818 -0.001856
v -0.197561 0.014356 -0.001824
v -0.197340 0.029818 -0.001856
v -0.197561 0.014356 -0.001824
v -0.146106 0.028902 -0.088772
v -0.146328 0.013440 -0.088740
v -0.094872 0.027986 -0.175688
v -0.095094 0.012524 -0.175656
v -0.094872 0.027986 -0.175688
v -0.095094 0.012524 -0.175656
v 0.006010 0.026540 -0.174769
v 0.005788 0.011079 -0.174737
v 0.106892 0.025094 -0.173851
v 0.106670 0.009633 -0.173819
v 0.106892 0.025094 -0.173851
v 0.106670 0.009633 -0.173819
v 0.156540 0.024565 -0.086016
v 0.156318 0.009103 -0.085984
v 0.206188 0.024035 0.001818
v 0.205966 0.008573 0.001850
v 0.255925 -0.012247 0.002349
v 0.236336 0.023603 0.002092
v 0.191932 -0.011103 0.110911
v 0.177447 0.024655 0.101996
v 0.127939 -0.009958 0.219472
v 0.118558 0.025708 0.201899
v 0.127939 -0.009958 0.219472
v 0.118558 0.025708 0.201899
v -0.124072 -0.006347 0.217178
v -0.113355 0.029032 0.199787
v -0.124072 -0.006347 0.217178
v -0.113355 0.029032 0.199787
v -0.248098 -0.005023 -0.002240
v -0.227488 0.030250 -0.002131
v -0.248098 -0.005023 -0.002240
v -0.227488 0.030250 -0.002131
v -0.184105 -0.006168 -0.110802
v -0.168599 0.029197 -0.102034
v -0.120111 -0.007312 -0.219363
v -0.109710 0.028144 -0.201937
v -0.120111 -0.007312 -0.219363
v -0.109710 0.028144 -0.201937
v 0.131900 -0.010923 -0.217068
v 0.122203 0.024821 -0.199826
v 0.131900 -0.010923 -0.217068
v 0.122203 0.024821 -0.199826
v 0.255925 -0.012247 0.002349
v 0.236336 0.023603 0.002092
v 0.206188 0.024035 0.001818
v 0.103721 0.025867 0.175649
v 0.106892 0.025094 -0.173851
v 0.156540 0.024565 -0.086016
v -0.197340 0.029818 -0.001856
v -0.146106 0.028902 -0.088772
v -0.094872 0.027986 -0.175688
v -0.098043 0.028758 0.173812
v -0.147692 0.029288 0.085978
v 0.236336 0.023603 0.002092
v 0.122203 0.024821 -0.199826
v 0.118558 0.025708 0.201899
v 0.177447 0.024655 0.101996
v -0.227488 0.030250 -0.002131
v -0.113355 0.029032 0.199787
v -0.109710 0.028144 -0.201937
v -0.168599 0.029197 -0.102034
v 0.006010 0.026540 -0.174769
v 0.127939 -0.009958 0.219472
v 0.191932 -0.011103 0.110911
v 0.255925 -0.012247 0.002349
v 0.131900 -0.010923 -0.217068
v -0.120111 -0.007312 -0.219363
v -0.184105 -0.006168 -0.110802
v -0.248098 -0.005023 -0.002240
v -0.124072 -0.006347 0.217178
vt 0.552364 0.879770
vt 0.864050 0.939753
vt 0.656260 0.939753
vt 0.760155 0.999737
vt 0.967945 0.759802
vt 0.967945 0.879770
vt 0.864050 0.579850
vt 0.552364 0.639834
vt 0.760155 0.519866
vt 0.967945 0.639834
vt 0.935320 0.439758
vt 0.695383 0.439757
vt 0.695383 0.421372
vt 0.935320 0.421372
vt 0.713769 0.143086
vt 0.713769 0.383022
vt 0.695383 0.383022
vt 0.695383 0.143086
vt 0.695383 0.402460
vt 0.815350 0.402460
vt 0.815351 0.420846
vt 0.695383 0.420846
vt 0.935318 0.420846
vt 0.935318 0.402460
vt 0.600168 0.490909
vt 0.720136 0.490909
vt 0.720136 0.509295
vt 0.600168 0.509294
vt 0.840104 0.509295
vt 0.840104 0.490909
vt 0.714295 0.383022
vt 0.714295 0.263054
vt 0.732681 0.263054
vt 0.732681 0.383022
vt 0.732681 0.143086
vt 0.714295 0.143086
vt 0.935318 0.401934
vt 0.815351 0.401934
vt 0.815351 0.383548
vt 0.935319 0.383548
vt 0.695383 0.383548
vt 0.695383 0.401934
vt 0.887906 0.047345
vt 0.750012 0.047345
vt 0.750012 0.000263
vt 0.899857 0.000263
vt 0.600168 0.000263
vt 0.612118 0.047345
vt 0.647249 0.155037
vt 0.647250 0.430825
vt 0.600168 0.442776
vt 0.600168 0.143086
vt 0.612119 0.443301
vt 0.887907 0.443301
vt 0.899858 0.490383
vt 0.600168 0.490383
vt 0.612118 0.047871
vt 0.750013 0.047871
vt 0.750012 0.094953
vt 0.600168 0.094952
vt 0.899857 0.094952
vt 0.887906 0.047871
vt 0.647776 0.430825
vt 0.647775 0.155037
vt 0.694857 0.143086
vt 0.694857 0.442775
vt 0.887907 0.142560
vt 0.612119 0.142560
vt 0.600168 0.095478
vt 0.899858 0.095478
vt 0.138157 0.997545
vt 0.000263 0.758706
vt 0.096099 0.862601
vt 0.036115 0.758705
vt 0.156083 0.550915
vt 0.156083 0.966496
vt 0.276051 0.997545
vt 0.396019 0.966496
vt 0.413945 0.997545
vt 0.456003 0.862600
vt 0.276051 0.966496
vt 0.276051 0.519866
vt 0.138157 0.519866
vt 0.413945 0.519866
vt 0.396019 0.550915
vt 0.551839 0.758706
vt 0.515986 0.758705
vt 0.456002 0.654810
vt 0.075185 0.389571
vt 0.449797 0.000263
vt 0.524720 0.130032
vt 0.599642 0.259802
vt 0.449797 0.519340
vt 0.150108 0.000263
vt 0.150108 0.519340
vt 0.000263 0.259802
vn 0.014400 0.999900 -0.002100
vn 0.014300 0.999900 -0.002100
vn -0.861400 0.011300 -0.507900
vn 0.009100 -0.002200 -1.000000
vn 0.870400 -0.013500 -0.492100
vn 0.861400 -0.011300 0.507900
vn -0.009100 0.002200 1.000000
vn -0.870400 0.013500 0.492100
vn 0.780000 0.429400 0.455200
vn 0.780000 0.429500 0.455200
vn -0.001800 0.441600 0.897200
vn -0.775500 0.451700 0.441100
vn -0.767300 0.449800 -0.457100
vn -0.767300 0.449700 -0.457100
vn 0.014500 0.437600 -0.899000
vn 0.788100 0.427500 -0.442900
vn -0.014300 -0.999900 0.002100
usemtl mat360
s off
f 1/1/1 10/2/1 9/3/1
f 9/3/2 10/2/2 8/4/2
f 10/2/2 4/5/2 5/6/2
f 1/1/2 4/5/2 10/2/2
f 7/7/2 2/8/2 6/9/2
f 3/10/2 4/5/2 7/7/2
f 2/8/2 7/7/2 4/5/2
f 1/1/2 2/8/2 4/5/2
f 12/11/3 14/12/3 13/13/3
f 12/11/3 13/13/3 11/14/3
f 16/15/4 18/16/4 17/17/4
f 16/15/4 17/17/4 15/18/4
f 20/19/5 22/20/5 21/21/5
f 20/19/5 21/21/5 19/22/5
f 23/23/5 21/21/5 22/20/5
f 23/23/5 22/20/5 24/24/5
f 26/25/6 28/26/6 27/27/6
f 26/25/6 27/27/6 25/28/6
f 29/29/6 27/27/6 28/26/6
f 29/29/6 28/26/6 30/30/6
f 32/31/7 34/32/7 33/33/7
f 32/31/7 33/33/7 31/34/7
f 35/35/7 33/33/7 34/32/7
f 35/35/7 34/32/7 36/36/7
f 38/37/8 40/38/8 39/39/8
f 38/37/8 39/39/8 37/40/8
f 41/41/8 39/39/8 40/38/8
f 41/41/8 40/38/8 42/42/8
f 44/43/9 46/44/9 45/45/9
f 44/43/10 45/45/10 43/46/10
f 47/47/9 45/45/9 46/44/9
f 47/47/10 46/44/10 48/48/10
f 50/49/11 52/50/11 51/51/11
f 50/49/11 51/51/11 49/52/11
f 54/53/12 56/54/12 55/55/12
f 54/53/12 55/55/12 53/56/12
f 58/57/13 60/58/13 59/59/13
f 58/57/14 59/59/14 57/60/14
f 61/61/13 59/59/13 60/58/13
f 61/61/14 60/58/14 62/62/14
f 64/63/15 66/64/15 65/65/15
f 64/63/15 65/65/15 63/66/15
f 68/67/16 70/68/16 69/69/16
f 68/67/16 69/69/16 67/70/16
f 84/71/2 85/72/2 79/73/2
f 79/73/2 85/72/2 78/74/2
f 72/75/2 78/74/2 85/72/2
f 84/71/1 79/73/1 75/76/1
f 87/77/1 84/71/1 75/76/1
f 87/77/2 77/78/2 86/79/2
f 88/80/2 86/79/2 77/78/2
f 76/81/2 77/78/2 87/77/2
f 87/77/2 75/76/2 76/81/2
f 83/82/2 72/75/2 82/83/2
f 85/72/2 82/83/2 72/75/2
f 80/84/1 71/85/1 83/82/1
f 81/86/2 88/80/2 73/87/2
f 80/84/1 81/86/1 74/88/1
f 73/87/2 74/88/2 81/86/2
f 74/88/1 71/85/1 80/84/1
f 86/79/2 88/80/2 81/86/2
f 71/85/1 72/75/1 83/82/1
f 90/89/17 95/90/17 94/91/17
f 94/91/17 93/92/17 92/93/17
f 96/94/17 95/90/17 90/89/17
f 90/89/17 94/91/17 91/95/17
f 91/95/17 94/91/17 92/93/17
f 89/96/17 96/94/17 90/89/17
